<mxfile host="app.diagrams.net" modified="2021-08-09T04:06:45.125Z" agent="5.0 (Windows NT 10.0; Win64; x64) AppleWebKit/537.36 (KHTML, like Gecko) Chrome/92.0.4515.131 Safari/537.36" etag="IbIc2NQ1hv7tXU3Zi7x9" version="14.9.5" type="github">
  <diagram id="xfwqEZEFU6EoQvWAWMvS" name="Page-1">
    <mxGraphModel dx="2272" dy="794" grid="1" gridSize="10" guides="1" tooltips="1" connect="1" arrows="1" fold="1" page="1" pageScale="1" pageWidth="850" pageHeight="1100" background="#ffffff" math="0" shadow="0">
      <root>
        <mxCell id="0" />
        <mxCell id="1" parent="0" />
        <mxCell id="3GVIAu_gNu4oS7Qc-XHk-10" style="edgeStyle=orthogonalEdgeStyle;rounded=0;orthogonalLoop=1;jettySize=auto;html=1;" parent="1" source="3GVIAu_gNu4oS7Qc-XHk-1" edge="1">
          <mxGeometry relative="1" as="geometry">
            <mxPoint x="20" y="1820" as="targetPoint" />
          </mxGeometry>
        </mxCell>
        <mxCell id="3GVIAu_gNu4oS7Qc-XHk-1" value="User" style="shape=umlActor;verticalLabelPosition=bottom;verticalAlign=top;html=1;outlineConnect=0;" parent="1" vertex="1">
          <mxGeometry x="-100" y="1800" width="20" height="40" as="geometry" />
        </mxCell>
        <mxCell id="3GVIAu_gNu4oS7Qc-XHk-14" style="edgeStyle=orthogonalEdgeStyle;rounded=0;orthogonalLoop=1;jettySize=auto;html=1;entryX=0;entryY=0.5;entryDx=0;entryDy=0;exitX=0.442;exitY=0.017;exitDx=0;exitDy=0;exitPerimeter=0;" parent="1" source="3GVIAu_gNu4oS7Qc-XHk-9" target="3GVIAu_gNu4oS7Qc-XHk-11" edge="1">
          <mxGeometry relative="1" as="geometry" />
        </mxCell>
        <mxCell id="3GVIAu_gNu4oS7Qc-XHk-17" style="edgeStyle=orthogonalEdgeStyle;rounded=0;orthogonalLoop=1;jettySize=auto;html=1;entryX=0;entryY=0.5;entryDx=0;entryDy=0;exitX=0.45;exitY=1.017;exitDx=0;exitDy=0;exitPerimeter=0;" parent="1" source="3GVIAu_gNu4oS7Qc-XHk-9" target="3GVIAu_gNu4oS7Qc-XHk-16" edge="1">
          <mxGeometry relative="1" as="geometry">
            <mxPoint x="90" y="1910" as="sourcePoint" />
          </mxGeometry>
        </mxCell>
        <mxCell id="3GVIAu_gNu4oS7Qc-XHk-9" value="Đăng nhập&amp;nbsp;" style="rounded=0;whiteSpace=wrap;html=1;" parent="1" vertex="1">
          <mxGeometry x="30" y="1790" width="120" height="60" as="geometry" />
        </mxCell>
        <mxCell id="3GVIAu_gNu4oS7Qc-XHk-20" style="edgeStyle=orthogonalEdgeStyle;rounded=0;orthogonalLoop=1;jettySize=auto;html=1;entryX=0;entryY=0.5;entryDx=0;entryDy=0;" parent="1" source="3GVIAu_gNu4oS7Qc-XHk-11" target="3GVIAu_gNu4oS7Qc-XHk-19" edge="1">
          <mxGeometry relative="1" as="geometry" />
        </mxCell>
        <mxCell id="3GVIAu_gNu4oS7Qc-XHk-11" value="Vào trang chủ" style="rounded=0;whiteSpace=wrap;html=1;" parent="1" vertex="1">
          <mxGeometry x="240" y="1700" width="120" height="60" as="geometry" />
        </mxCell>
        <mxCell id="3GVIAu_gNu4oS7Qc-XHk-15" value="Thành công" style="text;html=1;strokeColor=none;fillColor=none;align=center;verticalAlign=middle;whiteSpace=wrap;rounded=0;" parent="1" vertex="1">
          <mxGeometry x="130" y="1700" width="40" height="20" as="geometry" />
        </mxCell>
        <mxCell id="3GVIAu_gNu4oS7Qc-XHk-16" value="Quay lại trang Login" style="rounded=0;whiteSpace=wrap;html=1;" parent="1" vertex="1">
          <mxGeometry x="240" y="1880" width="120" height="60" as="geometry" />
        </mxCell>
        <mxCell id="3GVIAu_gNu4oS7Qc-XHk-18" value="Thất bại" style="text;html=1;strokeColor=none;fillColor=none;align=center;verticalAlign=middle;whiteSpace=wrap;rounded=0;" parent="1" vertex="1">
          <mxGeometry x="130" y="1880" width="40" height="20" as="geometry" />
        </mxCell>
        <mxCell id="3GVIAu_gNu4oS7Qc-XHk-31" style="edgeStyle=orthogonalEdgeStyle;rounded=0;orthogonalLoop=1;jettySize=auto;html=1;entryX=0;entryY=0.5;entryDx=0;entryDy=0;exitX=0.5;exitY=0;exitDx=0;exitDy=0;" parent="1" source="3GVIAu_gNu4oS7Qc-XHk-19" target="3GVIAu_gNu4oS7Qc-XHk-22" edge="1">
          <mxGeometry relative="1" as="geometry" />
        </mxCell>
        <mxCell id="3GVIAu_gNu4oS7Qc-XHk-19" value="Chọn danh mục bài viết" style="rounded=0;whiteSpace=wrap;html=1;" parent="1" vertex="1">
          <mxGeometry x="460" y="1700" width="120" height="60" as="geometry" />
        </mxCell>
        <mxCell id="3GVIAu_gNu4oS7Qc-XHk-26" style="edgeStyle=orthogonalEdgeStyle;rounded=0;orthogonalLoop=1;jettySize=auto;html=1;entryX=0;entryY=0.5;entryDx=0;entryDy=0;" parent="1" source="3GVIAu_gNu4oS7Qc-XHk-22" target="3GVIAu_gNu4oS7Qc-XHk-25" edge="1">
          <mxGeometry relative="1" as="geometry" />
        </mxCell>
        <mxCell id="3GVIAu_gNu4oS7Qc-XHk-22" value="CRUD Bài viết" style="rounded=0;whiteSpace=wrap;html=1;" parent="1" vertex="1">
          <mxGeometry x="650" y="1550" width="120" height="60" as="geometry" />
        </mxCell>
        <mxCell id="3GVIAu_gNu4oS7Qc-XHk-29" style="edgeStyle=orthogonalEdgeStyle;rounded=0;orthogonalLoop=1;jettySize=auto;html=1;entryX=0;entryY=0.5;entryDx=0;entryDy=0;" parent="1" source="3GVIAu_gNu4oS7Qc-XHk-25" target="3GVIAu_gNu4oS7Qc-XHk-28" edge="1">
          <mxGeometry relative="1" as="geometry" />
        </mxCell>
        <mxCell id="3GVIAu_gNu4oS7Qc-XHk-25" value="Admin" style="rounded=0;whiteSpace=wrap;html=1;" parent="1" vertex="1">
          <mxGeometry x="870" y="1550" width="120" height="60" as="geometry" />
        </mxCell>
        <mxCell id="3GVIAu_gNu4oS7Qc-XHk-27" value="Chờ phê duyệt bởi admin" style="text;html=1;strokeColor=none;fillColor=none;align=center;verticalAlign=middle;whiteSpace=wrap;rounded=0;" parent="1" vertex="1">
          <mxGeometry x="800" y="1530" width="40" height="30" as="geometry" />
        </mxCell>
        <mxCell id="3GVIAu_gNu4oS7Qc-XHk-28" value="Bài viết được lên trang chủ" style="rounded=0;whiteSpace=wrap;html=1;" parent="1" vertex="1">
          <mxGeometry x="1100" y="1550" width="120" height="60" as="geometry" />
        </mxCell>
        <mxCell id="3GVIAu_gNu4oS7Qc-XHk-30" value="Duyệt" style="text;html=1;align=center;verticalAlign=middle;resizable=0;points=[];autosize=1;strokeColor=none;" parent="1" vertex="1">
          <mxGeometry x="1030" y="1550" width="50" height="20" as="geometry" />
        </mxCell>
        <mxCell id="3GVIAu_gNu4oS7Qc-XHk-32" value="Gửi thông tin về lại User" style="rounded=0;whiteSpace=wrap;html=1;" parent="1" vertex="1">
          <mxGeometry x="1100" y="1680" width="120" height="60" as="geometry" />
        </mxCell>
        <mxCell id="3GVIAu_gNu4oS7Qc-XHk-34" value="" style="endArrow=classic;html=1;exitX=1;exitY=0.5;exitDx=0;exitDy=0;entryX=0;entryY=0.5;entryDx=0;entryDy=0;" parent="1" source="3GVIAu_gNu4oS7Qc-XHk-25" target="3GVIAu_gNu4oS7Qc-XHk-32" edge="1">
          <mxGeometry width="50" height="50" relative="1" as="geometry">
            <mxPoint x="1010" y="1630" as="sourcePoint" />
            <mxPoint x="1050" y="1590" as="targetPoint" />
          </mxGeometry>
        </mxCell>
        <mxCell id="3GVIAu_gNu4oS7Qc-XHk-35" value="Ko duyệt" style="text;html=1;align=center;verticalAlign=middle;resizable=0;points=[];autosize=1;strokeColor=none;rotation=50;" parent="1" vertex="1">
          <mxGeometry x="1035" y="1630" width="60" height="20" as="geometry" />
        </mxCell>
        <mxCell id="3GVIAu_gNu4oS7Qc-XHk-43" style="edgeStyle=orthogonalEdgeStyle;rounded=0;orthogonalLoop=1;jettySize=auto;html=1;entryX=0;entryY=0.5;entryDx=0;entryDy=0;" parent="1" source="3GVIAu_gNu4oS7Qc-XHk-37" target="3GVIAu_gNu4oS7Qc-XHk-38" edge="1">
          <mxGeometry relative="1" as="geometry">
            <mxPoint x="190" y="160" as="targetPoint" />
          </mxGeometry>
        </mxCell>
        <mxCell id="3GVIAu_gNu4oS7Qc-XHk-37" value="Admin" style="shape=umlActor;verticalLabelPosition=bottom;verticalAlign=top;html=1;outlineConnect=0;" parent="1" vertex="1">
          <mxGeometry x="40" y="140" width="30" height="40" as="geometry" />
        </mxCell>
        <mxCell id="3GVIAu_gNu4oS7Qc-XHk-38" value="Quản lý các danh mục" style="rounded=0;whiteSpace=wrap;html=1;" parent="1" vertex="1">
          <mxGeometry x="200" y="130" width="120" height="60" as="geometry" />
        </mxCell>
        <mxCell id="3GVIAu_gNu4oS7Qc-XHk-63" style="edgeStyle=orthogonalEdgeStyle;rounded=0;orthogonalLoop=1;jettySize=auto;html=1;entryX=0;entryY=0.5;entryDx=0;entryDy=0;" parent="1" source="3GVIAu_gNu4oS7Qc-XHk-44" target="3GVIAu_gNu4oS7Qc-XHk-62" edge="1">
          <mxGeometry relative="1" as="geometry" />
        </mxCell>
        <mxCell id="3GVIAu_gNu4oS7Qc-XHk-44" value="Quản lý các bài đăng của User" style="rounded=0;whiteSpace=wrap;html=1;" parent="1" vertex="1">
          <mxGeometry x="200" y="430" width="120" height="60" as="geometry" />
        </mxCell>
        <mxCell id="3GVIAu_gNu4oS7Qc-XHk-45" value="Phân quyền các tài khoản" style="rounded=0;whiteSpace=wrap;html=1;" parent="1" vertex="1">
          <mxGeometry x="200" y="310" width="120" height="60" as="geometry" />
        </mxCell>
        <mxCell id="3GVIAu_gNu4oS7Qc-XHk-46" value="" style="endArrow=classic;html=1;entryX=0;entryY=0.5;entryDx=0;entryDy=0;" parent="1" target="3GVIAu_gNu4oS7Qc-XHk-44" edge="1">
          <mxGeometry width="50" height="50" relative="1" as="geometry">
            <mxPoint x="70" y="160" as="sourcePoint" />
            <mxPoint x="200" y="270" as="targetPoint" />
          </mxGeometry>
        </mxCell>
        <mxCell id="3GVIAu_gNu4oS7Qc-XHk-47" value="" style="endArrow=classic;html=1;" parent="1" edge="1">
          <mxGeometry width="50" height="50" relative="1" as="geometry">
            <mxPoint x="70" y="160" as="sourcePoint" />
            <mxPoint x="200" y="360" as="targetPoint" />
          </mxGeometry>
        </mxCell>
        <mxCell id="3GVIAu_gNu4oS7Qc-XHk-48" value="Danh mục bài viết" style="rounded=0;whiteSpace=wrap;html=1;" parent="1" vertex="1">
          <mxGeometry x="450" y="20" width="120" height="60" as="geometry" />
        </mxCell>
        <mxCell id="3GVIAu_gNu4oS7Qc-XHk-49" value="Danh mục chủ đề" style="rounded=0;whiteSpace=wrap;html=1;" parent="1" vertex="1">
          <mxGeometry x="450" y="120" width="120" height="60" as="geometry" />
        </mxCell>
        <mxCell id="3GVIAu_gNu4oS7Qc-XHk-50" value="Danh mục người dùng" style="rounded=0;whiteSpace=wrap;html=1;" parent="1" vertex="1">
          <mxGeometry x="450" y="200" width="120" height="60" as="geometry" />
        </mxCell>
        <mxCell id="3GVIAu_gNu4oS7Qc-XHk-52" style="edgeStyle=orthogonalEdgeStyle;rounded=0;orthogonalLoop=1;jettySize=auto;html=1;entryX=0;entryY=0.5;entryDx=0;entryDy=0;" parent="1" edge="1">
          <mxGeometry relative="1" as="geometry">
            <mxPoint x="450" y="159.5" as="targetPoint" />
            <mxPoint x="320" y="159.5" as="sourcePoint" />
          </mxGeometry>
        </mxCell>
        <mxCell id="3GVIAu_gNu4oS7Qc-XHk-54" value="" style="endArrow=classic;html=1;exitX=1;exitY=0.5;exitDx=0;exitDy=0;" parent="1" source="3GVIAu_gNu4oS7Qc-XHk-38" edge="1">
          <mxGeometry width="50" height="50" relative="1" as="geometry">
            <mxPoint x="680" y="270" as="sourcePoint" />
            <mxPoint x="450" y="230" as="targetPoint" />
          </mxGeometry>
        </mxCell>
        <mxCell id="3GVIAu_gNu4oS7Qc-XHk-55" value="" style="endArrow=classic;html=1;entryX=0;entryY=0.5;entryDx=0;entryDy=0;" parent="1" target="3GVIAu_gNu4oS7Qc-XHk-48" edge="1">
          <mxGeometry width="50" height="50" relative="1" as="geometry">
            <mxPoint x="320" y="160" as="sourcePoint" />
            <mxPoint x="460" y="240" as="targetPoint" />
          </mxGeometry>
        </mxCell>
        <mxCell id="3GVIAu_gNu4oS7Qc-XHk-76" style="edgeStyle=orthogonalEdgeStyle;rounded=0;orthogonalLoop=1;jettySize=auto;html=1;entryX=0;entryY=0.5;entryDx=0;entryDy=0;" parent="1" source="3GVIAu_gNu4oS7Qc-XHk-56" target="3GVIAu_gNu4oS7Qc-XHk-73" edge="1">
          <mxGeometry relative="1" as="geometry" />
        </mxCell>
        <mxCell id="3GVIAu_gNu4oS7Qc-XHk-56" value="Quản lý lượt truy cập vào web" style="rounded=0;whiteSpace=wrap;html=1;" parent="1" vertex="1">
          <mxGeometry x="190" y="680" width="120" height="60" as="geometry" />
        </mxCell>
        <mxCell id="3GVIAu_gNu4oS7Qc-XHk-79" style="edgeStyle=orthogonalEdgeStyle;rounded=0;orthogonalLoop=1;jettySize=auto;html=1;entryX=0;entryY=0.5;entryDx=0;entryDy=0;" parent="1" source="3GVIAu_gNu4oS7Qc-XHk-57" target="3GVIAu_gNu4oS7Qc-XHk-78" edge="1">
          <mxGeometry relative="1" as="geometry" />
        </mxCell>
        <mxCell id="3GVIAu_gNu4oS7Qc-XHk-57" value="Quản lý thành viên ưu tú" style="rounded=0;whiteSpace=wrap;html=1;" parent="1" vertex="1">
          <mxGeometry x="200" y="910" width="120" height="60" as="geometry" />
        </mxCell>
        <mxCell id="3GVIAu_gNu4oS7Qc-XHk-81" style="edgeStyle=orthogonalEdgeStyle;rounded=0;orthogonalLoop=1;jettySize=auto;html=1;entryX=0;entryY=0.5;entryDx=0;entryDy=0;" parent="1" source="3GVIAu_gNu4oS7Qc-XHk-58" target="3GVIAu_gNu4oS7Qc-XHk-80" edge="1">
          <mxGeometry relative="1" as="geometry" />
        </mxCell>
        <mxCell id="3GVIAu_gNu4oS7Qc-XHk-58" value="Quản lý các bài đăng xuất sắc" style="rounded=0;whiteSpace=wrap;html=1;" parent="1" vertex="1">
          <mxGeometry x="200" y="1100" width="120" height="60" as="geometry" />
        </mxCell>
        <mxCell id="3GVIAu_gNu4oS7Qc-XHk-59" value="" style="endArrow=classic;html=1;entryX=0;entryY=0.65;entryDx=0;entryDy=0;entryPerimeter=0;" parent="1" target="3GVIAu_gNu4oS7Qc-XHk-56" edge="1">
          <mxGeometry width="50" height="50" relative="1" as="geometry">
            <mxPoint x="70" y="160" as="sourcePoint" />
            <mxPoint x="210" y="490" as="targetPoint" />
          </mxGeometry>
        </mxCell>
        <mxCell id="3GVIAu_gNu4oS7Qc-XHk-60" value="" style="endArrow=classic;html=1;entryX=-0.008;entryY=0.633;entryDx=0;entryDy=0;entryPerimeter=0;" parent="1" target="3GVIAu_gNu4oS7Qc-XHk-57" edge="1">
          <mxGeometry width="50" height="50" relative="1" as="geometry">
            <mxPoint x="70" y="160" as="sourcePoint" />
            <mxPoint x="210" y="609" as="targetPoint" />
          </mxGeometry>
        </mxCell>
        <mxCell id="3GVIAu_gNu4oS7Qc-XHk-61" value="" style="endArrow=classic;html=1;entryX=0;entryY=0.75;entryDx=0;entryDy=0;" parent="1" target="3GVIAu_gNu4oS7Qc-XHk-58" edge="1">
          <mxGeometry width="50" height="50" relative="1" as="geometry">
            <mxPoint x="70" y="160" as="sourcePoint" />
            <mxPoint x="209.03999999999996" y="707.98" as="targetPoint" />
          </mxGeometry>
        </mxCell>
        <mxCell id="3GVIAu_gNu4oS7Qc-XHk-66" style="edgeStyle=orthogonalEdgeStyle;rounded=0;orthogonalLoop=1;jettySize=auto;html=1;entryX=0;entryY=0.5;entryDx=0;entryDy=0;" parent="1" source="3GVIAu_gNu4oS7Qc-XHk-62" target="3GVIAu_gNu4oS7Qc-XHk-65" edge="1">
          <mxGeometry relative="1" as="geometry" />
        </mxCell>
        <mxCell id="3GVIAu_gNu4oS7Qc-XHk-62" value="Các bài đăng chờ phê duyệt" style="rounded=0;whiteSpace=wrap;html=1;" parent="1" vertex="1">
          <mxGeometry x="470" y="430" width="120" height="60" as="geometry" />
        </mxCell>
        <mxCell id="3GVIAu_gNu4oS7Qc-XHk-64" value="Duyệt" style="text;html=1;strokeColor=none;fillColor=none;align=center;verticalAlign=middle;whiteSpace=wrap;rounded=0;" parent="1" vertex="1">
          <mxGeometry x="640" y="430" width="40" height="20" as="geometry" />
        </mxCell>
        <mxCell id="3GVIAu_gNu4oS7Qc-XHk-69" style="edgeStyle=orthogonalEdgeStyle;rounded=0;orthogonalLoop=1;jettySize=auto;html=1;entryX=0.5;entryY=0;entryDx=0;entryDy=0;" parent="1" source="3GVIAu_gNu4oS7Qc-XHk-65" target="3GVIAu_gNu4oS7Qc-XHk-68" edge="1">
          <mxGeometry relative="1" as="geometry" />
        </mxCell>
        <mxCell id="3GVIAu_gNu4oS7Qc-XHk-65" value="Bài đăng lên trang chủ" style="rounded=0;whiteSpace=wrap;html=1;" parent="1" vertex="1">
          <mxGeometry x="740" y="430" width="120" height="60" as="geometry" />
        </mxCell>
        <mxCell id="3GVIAu_gNu4oS7Qc-XHk-70" style="edgeStyle=orthogonalEdgeStyle;rounded=0;orthogonalLoop=1;jettySize=auto;html=1;entryX=0.5;entryY=1;entryDx=0;entryDy=0;" parent="1" source="3GVIAu_gNu4oS7Qc-XHk-67" target="3GVIAu_gNu4oS7Qc-XHk-68" edge="1">
          <mxGeometry relative="1" as="geometry" />
        </mxCell>
        <mxCell id="3GVIAu_gNu4oS7Qc-XHk-67" value="Gửi về cho User những thông tin vi phạm đến bài đăng" style="rounded=0;whiteSpace=wrap;html=1;" parent="1" vertex="1">
          <mxGeometry x="740" y="550" width="120" height="60" as="geometry" />
        </mxCell>
        <mxCell id="3GVIAu_gNu4oS7Qc-XHk-68" value="Thông báo về user" style="ellipse;whiteSpace=wrap;html=1;" parent="1" vertex="1">
          <mxGeometry x="1010" y="480" width="120" height="80" as="geometry" />
        </mxCell>
        <mxCell id="3GVIAu_gNu4oS7Qc-XHk-71" value="" style="endArrow=classic;html=1;entryX=0;entryY=0.5;entryDx=0;entryDy=0;" parent="1" target="3GVIAu_gNu4oS7Qc-XHk-67" edge="1">
          <mxGeometry width="50" height="50" relative="1" as="geometry">
            <mxPoint x="590" y="460" as="sourcePoint" />
            <mxPoint x="680" y="430" as="targetPoint" />
          </mxGeometry>
        </mxCell>
        <mxCell id="3GVIAu_gNu4oS7Qc-XHk-72" value="&lt;span style=&quot;color: rgb(0 , 0 , 0) ; font-family: &amp;#34;helvetica&amp;#34; ; font-size: 12px ; font-style: normal ; font-weight: 400 ; letter-spacing: normal ; text-align: center ; text-indent: 0px ; text-transform: none ; word-spacing: 0px ; background-color: rgb(248 , 249 , 250) ; display: inline ; float: none&quot;&gt;Ko duyệt&lt;/span&gt;" style="text;whiteSpace=wrap;html=1;rotation=40;" parent="1" vertex="1">
          <mxGeometry x="660" y="510" width="60" height="30" as="geometry" />
        </mxCell>
        <mxCell id="3GVIAu_gNu4oS7Qc-XHk-73" value="Quản lý lượt truy cập web" style="rounded=0;whiteSpace=wrap;html=1;" parent="1" vertex="1">
          <mxGeometry x="470" y="680" width="120" height="60" as="geometry" />
        </mxCell>
        <mxCell id="3GVIAu_gNu4oS7Qc-XHk-74" value="Lượt truy cập web tương ứng với mỗi bài đăng" style="rounded=0;whiteSpace=wrap;html=1;" parent="1" vertex="1">
          <mxGeometry x="470" y="780" width="120" height="60" as="geometry" />
        </mxCell>
        <mxCell id="3GVIAu_gNu4oS7Qc-XHk-77" value="" style="endArrow=classic;html=1;entryX=0;entryY=0.5;entryDx=0;entryDy=0;" parent="1" target="3GVIAu_gNu4oS7Qc-XHk-74" edge="1">
          <mxGeometry width="50" height="50" relative="1" as="geometry">
            <mxPoint x="310" y="710" as="sourcePoint" />
            <mxPoint x="460" y="830" as="targetPoint" />
          </mxGeometry>
        </mxCell>
        <mxCell id="3GVIAu_gNu4oS7Qc-XHk-78" value="Thành viên có số bài đăng thường xuyên nhất" style="rounded=0;whiteSpace=wrap;html=1;" parent="1" vertex="1">
          <mxGeometry x="460" y="910" width="120" height="60" as="geometry" />
        </mxCell>
        <mxCell id="3GVIAu_gNu4oS7Qc-XHk-80" value="Bài đăng có nhiều tương tác&amp;nbsp;" style="rounded=0;whiteSpace=wrap;html=1;" parent="1" vertex="1">
          <mxGeometry x="450" y="1100" width="120" height="60" as="geometry" />
        </mxCell>
        <mxCell id="3GVIAu_gNu4oS7Qc-XHk-86" style="edgeStyle=orthogonalEdgeStyle;rounded=0;orthogonalLoop=1;jettySize=auto;html=1;entryX=0;entryY=0.5;entryDx=0;entryDy=0;" parent="1" source="3GVIAu_gNu4oS7Qc-XHk-82" target="3GVIAu_gNu4oS7Qc-XHk-84" edge="1">
          <mxGeometry relative="1" as="geometry" />
        </mxCell>
        <mxCell id="3GVIAu_gNu4oS7Qc-XHk-82" value="Tài khoản" style="rounded=0;whiteSpace=wrap;html=1;" parent="1" vertex="1">
          <mxGeometry x="40" y="2000" width="120" height="60" as="geometry" />
        </mxCell>
        <mxCell id="3GVIAu_gNu4oS7Qc-XHk-83" value="" style="endArrow=classic;html=1;entryX=0;entryY=0.5;entryDx=0;entryDy=0;" parent="1" target="3GVIAu_gNu4oS7Qc-XHk-82" edge="1">
          <mxGeometry width="50" height="50" relative="1" as="geometry">
            <mxPoint x="-80" y="1820" as="sourcePoint" />
            <mxPoint x="-10" y="1860" as="targetPoint" />
          </mxGeometry>
        </mxCell>
        <mxCell id="3GVIAu_gNu4oS7Qc-XHk-84" value="Tạo tài khoản" style="rounded=0;whiteSpace=wrap;html=1;" parent="1" vertex="1">
          <mxGeometry x="250" y="2000" width="120" height="60" as="geometry" />
        </mxCell>
        <mxCell id="3GVIAu_gNu4oS7Qc-XHk-90" style="edgeStyle=orthogonalEdgeStyle;rounded=0;orthogonalLoop=1;jettySize=auto;html=1;entryX=0;entryY=0.5;entryDx=0;entryDy=0;" parent="1" source="3GVIAu_gNu4oS7Qc-XHk-85" target="3GVIAu_gNu4oS7Qc-XHk-88" edge="1">
          <mxGeometry relative="1" as="geometry">
            <mxPoint x="440" y="2130" as="targetPoint" />
          </mxGeometry>
        </mxCell>
        <mxCell id="3GVIAu_gNu4oS7Qc-XHk-85" value="Lấy lại mật khẩu" style="rounded=0;whiteSpace=wrap;html=1;" parent="1" vertex="1">
          <mxGeometry x="250" y="2100" width="120" height="60" as="geometry" />
        </mxCell>
        <mxCell id="3GVIAu_gNu4oS7Qc-XHk-87" value="" style="endArrow=classic;html=1;entryX=0;entryY=0.5;entryDx=0;entryDy=0;" parent="1" target="3GVIAu_gNu4oS7Qc-XHk-85" edge="1">
          <mxGeometry width="50" height="50" relative="1" as="geometry">
            <mxPoint x="160" y="2030" as="sourcePoint" />
            <mxPoint x="280" y="2240" as="targetPoint" />
          </mxGeometry>
        </mxCell>
        <mxCell id="3GVIAu_gNu4oS7Qc-XHk-88" value="Lấy lại bằng Gmail" style="rounded=0;whiteSpace=wrap;html=1;" parent="1" vertex="1">
          <mxGeometry x="450" y="2100" width="120" height="60" as="geometry" />
        </mxCell>
        <mxCell id="3GVIAu_gNu4oS7Qc-XHk-89" value="Lấy lại bằng SDT" style="rounded=0;whiteSpace=wrap;html=1;" parent="1" vertex="1">
          <mxGeometry x="451" y="2200" width="120" height="60" as="geometry" />
        </mxCell>
        <mxCell id="3GVIAu_gNu4oS7Qc-XHk-91" value="" style="endArrow=classic;html=1;" parent="1" edge="1">
          <mxGeometry width="50" height="50" relative="1" as="geometry">
            <mxPoint x="370" y="2130" as="sourcePoint" />
            <mxPoint x="450" y="2230" as="targetPoint" />
          </mxGeometry>
        </mxCell>
      </root>
    </mxGraphModel>
  </diagram>
</mxfile>
